<?xml version="1.0" encoding="utf-8"?>
<!-- Generator: Adobe Illustrator 23.0.5, SVG Export Plug-In . SVG Version: 6.00 Build 0)  -->
<svg version="1.1" id="Слой_1" xmlns="http://www.w3.org/2000/svg" xmlns:xlink="http://www.w3.org/1999/xlink" x="0px" y="0px"
	 viewBox="0 0 60 60" style="enable-background:new 0 0 60 60;" xml:space="preserve">
<style type="text/css">
	.st0{fill:none;stroke:#F7931E;stroke-width:4;stroke-miterlimit:10;}
	.st1{fill:#F7931E;}
</style>
<g>
	<path class="st0" d="M30.19,56.64L30.19,56.64c-13.81,0-25-11.19-25-25v0c0-13.81,11.19-25,25-25h0c13.81,0,25,11.19,25,25v0
		C55.19,45.45,44,56.64,30.19,56.64z"/>
	<path class="st1" d="M55.19,22.17h-50v0c0-8.58,6.95-15.53,15.53-15.53h18.94C48.24,6.64,55.19,13.59,55.19,22.17L55.19,22.17z"/>
	<circle class="st1" cx="20.36" cy="34.85" r="5.89"/>
	<path class="st1" d="M18.45,12.04L18.45,12.04c-1.26,0-2.27-1.02-2.27-2.27V3.52c0-1.26,1.02-2.27,2.27-2.27h0
		c1.26,0,2.27,1.02,2.27,2.27v6.25C20.72,11.02,19.7,12.04,18.45,12.04z"/>
	<path class="st1" d="M42.03,12.04L42.03,12.04c-1.26,0-2.27-1.02-2.27-2.27V3.52c0-1.26,1.02-2.27,2.27-2.27h0
		c1.26,0,2.27,1.02,2.27,2.27v6.25C44.3,11.02,43.28,12.04,42.03,12.04z"/>
</g>
</svg>
